<mxfile host="app.diagrams.net" modified="2022-09-23T21:02:55.261Z" agent="5.0 (Windows NT 10.0; Win64; x64) AppleWebKit/537.36 (KHTML, like Gecko) Chrome/105.0.0.0 Safari/537.36" etag="LKYWtCkH_-h36zfGPeUT" version="20.3.6" type="github">
  <diagram id="6o-PFwS-r8t_ji7xHeHs" name="Page-1">
    <mxGraphModel dx="1038" dy="1771" grid="1" gridSize="8" guides="0" tooltips="1" connect="0" arrows="0" fold="1" page="0" pageScale="1" pageWidth="827" pageHeight="1169" background="#F1FAEE" math="0" shadow="0">
      <root>
        <mxCell id="0" />
        <mxCell id="1" parent="0" />
        <mxCell id="dkGYVJOHW7Im5ONdV2D0-10" value="" style="ellipse;html=1;shape=startState;fillColor=#A8DADC;strokeColor=#457B9D;fontColor=#1D3557;rounded=1;" parent="1" vertex="1">
          <mxGeometry x="400" y="-1169" width="30" height="30" as="geometry" />
        </mxCell>
        <mxCell id="dkGYVJOHW7Im5ONdV2D0-11" value="" style="edgeStyle=orthogonalEdgeStyle;html=1;verticalAlign=bottom;endArrow=open;endSize=8;labelBackgroundColor=#F1FAEE;strokeColor=#457B9D;fontColor=#1D3557;rounded=1;" parent="1" source="dkGYVJOHW7Im5ONdV2D0-10" edge="1">
          <mxGeometry relative="1" as="geometry">
            <mxPoint x="415" y="-1120" as="targetPoint" />
          </mxGeometry>
        </mxCell>
        <mxCell id="dkGYVJOHW7Im5ONdV2D0-15" value="" style="edgeStyle=segmentEdgeStyle;endArrow=classic;html=1;labelBackgroundColor=#F1FAEE;strokeColor=#457B9D;fontColor=#1D3557;rounded=1;strokeWidth=2;" parent="1" edge="1">
          <mxGeometry width="50" height="50" relative="1" as="geometry">
            <mxPoint x="427" y="-1056" as="sourcePoint" />
            <mxPoint x="728" y="-1032" as="targetPoint" />
            <Array as="points">
              <mxPoint x="427" y="-1056" />
              <mxPoint x="728" y="-1056" />
            </Array>
          </mxGeometry>
        </mxCell>
        <mxCell id="dkGYVJOHW7Im5ONdV2D0-49" style="edgeStyle=orthogonalEdgeStyle;orthogonalLoop=1;jettySize=auto;html=1;exitX=1;exitY=0.5;exitDx=0;exitDy=0;labelBackgroundColor=#F1FAEE;strokeColor=#457B9D;fontColor=#1D3557;rounded=1;strokeWidth=2;" parent="1" source="dkGYVJOHW7Im5ONdV2D0-17" edge="1">
          <mxGeometry relative="1" as="geometry">
            <mxPoint x="368" y="-960" as="targetPoint" />
            <Array as="points">
              <mxPoint x="368" y="-1016" />
            </Array>
          </mxGeometry>
        </mxCell>
        <mxCell id="dkGYVJOHW7Im5ONdV2D0-17" value="Sign in" style="whiteSpace=wrap;html=1;fillColor=#A8DADC;strokeColor=#457B9D;fontColor=#1D3557;rounded=1;" parent="1" vertex="1">
          <mxGeometry x="88" y="-1032" width="56" height="32" as="geometry" />
        </mxCell>
        <mxCell id="dkGYVJOHW7Im5ONdV2D0-18" value="Sign Up" style="whiteSpace=wrap;html=1;fillColor=#A8DADC;strokeColor=#457B9D;fontColor=#1D3557;rounded=1;" parent="1" vertex="1">
          <mxGeometry x="704" y="-1032" width="56" height="32" as="geometry" />
        </mxCell>
        <mxCell id="dkGYVJOHW7Im5ONdV2D0-23" value="Dashboard" style="whiteSpace=wrap;html=1;fillColor=#A8DADC;strokeColor=#457B9D;fontColor=#1D3557;rounded=1;" parent="1" vertex="1">
          <mxGeometry x="368" y="-1120" width="101" height="32" as="geometry" />
        </mxCell>
        <mxCell id="dkGYVJOHW7Im5ONdV2D0-25" value="" style="endArrow=classic;html=1;labelBackgroundColor=#F1FAEE;strokeColor=#457B9D;fontColor=#1D3557;rounded=1;" parent="1" edge="1">
          <mxGeometry width="50" height="50" relative="1" as="geometry">
            <mxPoint x="416" y="-1088" as="sourcePoint" />
            <mxPoint x="415" y="-1064" as="targetPoint" />
          </mxGeometry>
        </mxCell>
        <mxCell id="dkGYVJOHW7Im5ONdV2D0-27" value="already have an acciunt ?" style="text;html=1;resizable=0;autosize=1;align=center;verticalAlign=middle;points=[];fillColor=none;strokeColor=none;fontColor=#1D3557;rounded=1;" parent="1" vertex="1">
          <mxGeometry x="120" y="-1088" width="160" height="32" as="geometry" />
        </mxCell>
        <mxCell id="dkGYVJOHW7Im5ONdV2D0-28" value="don&#39;t have an account" style="text;html=1;resizable=0;autosize=1;align=center;verticalAlign=middle;points=[];fillColor=none;strokeColor=none;fontColor=#1D3557;rounded=1;" parent="1" vertex="1">
          <mxGeometry x="512" y="-1088" width="136" height="32" as="geometry" />
        </mxCell>
        <mxCell id="dkGYVJOHW7Im5ONdV2D0-29" value="enter information" style="whiteSpace=wrap;html=1;fillColor=#A8DADC;strokeColor=#457B9D;fontColor=#1D3557;rounded=1;" parent="1" vertex="1">
          <mxGeometry x="688" y="-984" width="104" height="32" as="geometry" />
        </mxCell>
        <mxCell id="dkGYVJOHW7Im5ONdV2D0-31" value="" style="endArrow=classic;html=1;labelBackgroundColor=#F1FAEE;strokeColor=#457B9D;fontColor=#1D3557;rounded=1;" parent="1" edge="1">
          <mxGeometry width="50" height="50" relative="1" as="geometry">
            <mxPoint x="736" y="-1000" as="sourcePoint" />
            <mxPoint x="736" y="-984" as="targetPoint" />
            <Array as="points">
              <mxPoint x="736" y="-984" />
            </Array>
          </mxGeometry>
        </mxCell>
        <mxCell id="dkGYVJOHW7Im5ONdV2D0-80" style="edgeStyle=orthogonalEdgeStyle;orthogonalLoop=1;jettySize=auto;html=1;entryX=1;entryY=0.5;entryDx=0;entryDy=0;labelBackgroundColor=#F1FAEE;strokeColor=#457B9D;fontColor=#1D3557;rounded=1;strokeWidth=2;" parent="1" source="dkGYVJOHW7Im5ONdV2D0-32" target="dkGYVJOHW7Im5ONdV2D0-18" edge="1">
          <mxGeometry relative="1" as="geometry">
            <mxPoint x="808" y="-1016" as="targetPoint" />
            <Array as="points">
              <mxPoint x="960" y="-928" />
              <mxPoint x="960" y="-1016" />
            </Array>
          </mxGeometry>
        </mxCell>
        <mxCell id="dkGYVJOHW7Im5ONdV2D0-32" value="" style="rhombus;whiteSpace=wrap;html=1;fillColor=#A8DADC;strokeColor=#457B9D;fontColor=#1D3557;rounded=1;" parent="1" vertex="1">
          <mxGeometry x="732" y="-936" width="16" height="16" as="geometry" />
        </mxCell>
        <mxCell id="dkGYVJOHW7Im5ONdV2D0-33" value="" style="endArrow=classic;html=1;exitX=0.5;exitY=1;exitDx=0;exitDy=0;labelBackgroundColor=#F1FAEE;strokeColor=#457B9D;fontColor=#1D3557;rounded=1;" parent="1" source="dkGYVJOHW7Im5ONdV2D0-29" edge="1">
          <mxGeometry width="50" height="50" relative="1" as="geometry">
            <mxPoint x="672" y="-886" as="sourcePoint" />
            <mxPoint x="740" y="-936" as="targetPoint" />
          </mxGeometry>
        </mxCell>
        <mxCell id="dkGYVJOHW7Im5ONdV2D0-45" value="" style="endArrow=classic;html=1;exitX=0.5;exitY=1;exitDx=0;exitDy=0;labelBackgroundColor=#F1FAEE;strokeColor=#457B9D;fontColor=#1D3557;rounded=1;" parent="1" source="dkGYVJOHW7Im5ONdV2D0-17" edge="1">
          <mxGeometry width="50" height="50" relative="1" as="geometry">
            <mxPoint x="104" y="-984" as="sourcePoint" />
            <mxPoint x="116" y="-984" as="targetPoint" />
            <Array as="points" />
          </mxGeometry>
        </mxCell>
        <mxCell id="dkGYVJOHW7Im5ONdV2D0-46" value="forgot password" style="whiteSpace=wrap;html=1;fillColor=#A8DADC;strokeColor=#457B9D;fontColor=#1D3557;rounded=1;" parent="1" vertex="1">
          <mxGeometry x="64" y="-984" width="96" height="40" as="geometry" />
        </mxCell>
        <mxCell id="dkGYVJOHW7Im5ONdV2D0-47" value="" style="endArrow=classic;html=1;labelBackgroundColor=#F1FAEE;strokeColor=#457B9D;fontColor=#1D3557;rounded=1;" parent="1" edge="1">
          <mxGeometry width="50" height="50" relative="1" as="geometry">
            <mxPoint x="160" y="-960" as="sourcePoint" />
            <mxPoint x="200" y="-960" as="targetPoint" />
          </mxGeometry>
        </mxCell>
        <mxCell id="dkGYVJOHW7Im5ONdV2D0-50" style="edgeStyle=orthogonalEdgeStyle;orthogonalLoop=1;jettySize=auto;html=1;exitX=1;exitY=0.5;exitDx=0;exitDy=0;entryX=1;entryY=0.75;entryDx=0;entryDy=0;labelBackgroundColor=#F1FAEE;strokeColor=#457B9D;fontColor=#1D3557;rounded=1;strokeWidth=2;" parent="1" source="dkGYVJOHW7Im5ONdV2D0-48" target="dkGYVJOHW7Im5ONdV2D0-17" edge="1">
          <mxGeometry relative="1" as="geometry" />
        </mxCell>
        <mxCell id="dkGYVJOHW7Im5ONdV2D0-48" value="change password" style="whiteSpace=wrap;html=1;fillStyle=auto;fillColor=#A8DADC;strokeColor=#457B9D;fontColor=#1D3557;rounded=1;" parent="1" vertex="1">
          <mxGeometry x="200" y="-984" width="104" height="40" as="geometry" />
        </mxCell>
        <mxCell id="dkGYVJOHW7Im5ONdV2D0-71" style="edgeStyle=orthogonalEdgeStyle;orthogonalLoop=1;jettySize=auto;html=1;entryX=0;entryY=0.75;entryDx=0;entryDy=0;labelBackgroundColor=#F1FAEE;strokeColor=#457B9D;fontColor=#1D3557;rounded=1;strokeWidth=2;" parent="1" source="dkGYVJOHW7Im5ONdV2D0-65" target="dkGYVJOHW7Im5ONdV2D0-17" edge="1">
          <mxGeometry relative="1" as="geometry">
            <mxPoint x="80" y="-1008" as="targetPoint" />
            <Array as="points">
              <mxPoint x="368" y="-912" />
              <mxPoint x="16" y="-912" />
              <mxPoint x="16" y="-1008" />
            </Array>
          </mxGeometry>
        </mxCell>
        <mxCell id="dkGYVJOHW7Im5ONdV2D0-65" value="" style="rhombus;whiteSpace=wrap;html=1;fillColor=#A8DADC;strokeColor=#457B9D;fontColor=#1D3557;rounded=1;" parent="1" vertex="1">
          <mxGeometry x="360" y="-960" width="16" height="16" as="geometry" />
        </mxCell>
        <mxCell id="dkGYVJOHW7Im5ONdV2D0-68" value="" style="rhombus;whiteSpace=wrap;html=1;fillColor=#A8DADC;strokeColor=#457B9D;fontColor=#1D3557;rounded=1;" parent="1" vertex="1">
          <mxGeometry x="407" y="-1064" width="16" height="16" as="geometry" />
        </mxCell>
        <mxCell id="dkGYVJOHW7Im5ONdV2D0-74" value="incorrect mail or password" style="text;html=1;resizable=0;autosize=1;align=center;verticalAlign=middle;points=[];fillColor=none;strokeColor=none;fontColor=#1D3557;rounded=1;" parent="1" vertex="1">
          <mxGeometry x="60" y="-910" width="160" height="32" as="geometry" />
        </mxCell>
        <mxCell id="dkGYVJOHW7Im5ONdV2D0-75" value="correct mail &lt;br&gt;and passwordt" style="text;html=1;resizable=0;autosize=1;align=center;verticalAlign=middle;points=[];fillColor=none;strokeColor=none;fontColor=#1D3557;rounded=1;" parent="1" vertex="1">
          <mxGeometry x="368" y="-952" width="96" height="48" as="geometry" />
        </mxCell>
        <mxCell id="dkGYVJOHW7Im5ONdV2D0-43" value="incorrect information" style="text;html=1;resizable=0;autosize=1;align=center;verticalAlign=middle;points=[];fillColor=none;strokeColor=none;fontColor=#1D3557;rounded=1;" parent="1" vertex="1">
          <mxGeometry x="816" y="-960" width="128" height="32" as="geometry" />
        </mxCell>
        <mxCell id="dkGYVJOHW7Im5ONdV2D0-83" value="" style="endArrow=none;html=1;strokeWidth=4;labelBackgroundColor=#F1FAEE;strokeColor=#457B9D;fontColor=#1D3557;rounded=1;" parent="1" edge="1">
          <mxGeometry relative="1" as="geometry">
            <mxPoint x="8" y="-864" as="sourcePoint" />
            <mxPoint x="1008" y="-864" as="targetPoint" />
          </mxGeometry>
        </mxCell>
        <mxCell id="dkGYVJOHW7Im5ONdV2D0-84" value="correct information" style="text;html=1;resizable=0;autosize=1;align=center;verticalAlign=middle;points=[];fillColor=none;strokeColor=none;fontColor=#1D3557;rounded=1;" parent="1" vertex="1">
          <mxGeometry x="616" y="-928" width="120" height="32" as="geometry" />
        </mxCell>
        <object label="" id="ePUnUOnn1ZwYabv3tE3A-7">
          <mxCell style="swimlane;startSize=0;strokeWidth=3;fillColor=#A8DADC;strokeColor=#457B9D;fontColor=#1D3557;rounded=1;" vertex="1" parent="1">
            <mxGeometry x="16" y="-832" width="984" height="632" as="geometry" />
          </mxCell>
        </object>
        <mxCell id="ePUnUOnn1ZwYabv3tE3A-12" value="Admin" style="text;html=1;resizable=0;autosize=1;align=center;verticalAlign=middle;points=[];fillColor=none;strokeColor=none;strokeWidth=2;shadow=0;glass=0;fontStyle=1;labelBorderColor=none;spacingTop=3;fontSize=18;fontColor=#1D3557;rounded=1;" vertex="1" parent="ePUnUOnn1ZwYabv3tE3A-7">
          <mxGeometry x="824" y="-8" width="80" height="40" as="geometry" />
        </mxCell>
        <mxCell id="ePUnUOnn1ZwYabv3tE3A-13" value="Customers" style="text;html=1;resizable=0;autosize=1;align=center;verticalAlign=middle;points=[];fillColor=none;strokeColor=none;strokeWidth=2;shadow=0;glass=0;fontStyle=1;labelBorderColor=none;spacingTop=3;fontSize=18;fontColor=#1D3557;rounded=1;" vertex="1" parent="ePUnUOnn1ZwYabv3tE3A-7">
          <mxGeometry x="448" y="-8" width="112" height="40" as="geometry" />
        </mxCell>
        <mxCell id="ePUnUOnn1ZwYabv3tE3A-14" value="Sellers" style="text;html=1;resizable=0;autosize=1;align=center;verticalAlign=middle;points=[];fillColor=none;strokeColor=none;strokeWidth=2;shadow=0;glass=0;fontStyle=1;labelBorderColor=none;spacingTop=3;fontSize=18;fontColor=#1D3557;rounded=1;" vertex="1" parent="ePUnUOnn1ZwYabv3tE3A-7">
          <mxGeometry x="72" y="-8" width="80" height="40" as="geometry" />
        </mxCell>
        <mxCell id="ePUnUOnn1ZwYabv3tE3A-11" value="" style="endArrow=none;html=1;strokeWidth=2;labelBackgroundColor=#F1FAEE;strokeColor=#457B9D;fontColor=#1D3557;rounded=1;" edge="1" parent="ePUnUOnn1ZwYabv3tE3A-7">
          <mxGeometry width="50" height="50" relative="1" as="geometry">
            <mxPoint x="2" y="31" as="sourcePoint" />
            <mxPoint x="986" y="31" as="targetPoint" />
          </mxGeometry>
        </mxCell>
        <mxCell id="ePUnUOnn1ZwYabv3tE3A-22" value="" style="endArrow=none;html=1;strokeWidth=2;fontSize=19;entryX=0.666;entryY=0.998;entryDx=0;entryDy=0;entryPerimeter=0;labelBackgroundColor=#F1FAEE;strokeColor=#457B9D;fontColor=#1D3557;rounded=1;" edge="1" parent="ePUnUOnn1ZwYabv3tE3A-7" target="ePUnUOnn1ZwYabv3tE3A-7">
          <mxGeometry width="50" height="50" relative="1" as="geometry">
            <mxPoint x="656" as="sourcePoint" />
            <mxPoint x="656" y="624" as="targetPoint" />
            <Array as="points">
              <mxPoint x="657.0019999999998" y="348.424" />
              <mxPoint x="657.0019999999998" y="452.424" />
              <mxPoint x="656.0019999999998" y="604.424" />
            </Array>
          </mxGeometry>
        </mxCell>
        <mxCell id="ePUnUOnn1ZwYabv3tE3A-44" value="" style="edgeStyle=none;orthogonalLoop=1;jettySize=auto;html=1;strokeWidth=2;fontSize=19;labelBackgroundColor=#F1FAEE;strokeColor=#457B9D;fontColor=#1D3557;rounded=1;" edge="1" parent="ePUnUOnn1ZwYabv3tE3A-7">
          <mxGeometry width="80" relative="1" as="geometry">
            <mxPoint x="784" y="-32" as="sourcePoint" />
            <mxPoint x="784" y="48" as="targetPoint" />
            <Array as="points" />
          </mxGeometry>
        </mxCell>
        <mxCell id="ePUnUOnn1ZwYabv3tE3A-46" value="Seller Home page" style="whiteSpace=wrap;html=1;fillColor=#A8DADC;strokeColor=#457B9D;fontColor=#1D3557;rounded=1;" vertex="1" parent="ePUnUOnn1ZwYabv3tE3A-7">
          <mxGeometry x="128" y="48" width="96" height="40" as="geometry" />
        </mxCell>
        <mxCell id="ePUnUOnn1ZwYabv3tE3A-51" value="" style="line;strokeWidth=4;html=1;shadow=0;glass=0;labelBackgroundColor=none;labelBorderColor=none;fontFamily=Times New Roman;fontSize=18;fillColor=#A8DADC;strokeColor=#457B9D;fontColor=#1D3557;rounded=1;" vertex="1" parent="ePUnUOnn1ZwYabv3tE3A-7">
          <mxGeometry x="56" y="104" width="216" height="10" as="geometry" />
        </mxCell>
        <mxCell id="ePUnUOnn1ZwYabv3tE3A-52" value="" style="edgeStyle=none;orthogonalLoop=1;jettySize=auto;html=1;strokeWidth=2;fontSize=19;labelBackgroundColor=#F1FAEE;strokeColor=#457B9D;fontColor=#1D3557;rounded=1;" edge="1" parent="ePUnUOnn1ZwYabv3tE3A-7">
          <mxGeometry width="80" relative="1" as="geometry">
            <mxPoint x="176" y="88" as="sourcePoint" />
            <mxPoint x="176" y="112" as="targetPoint" />
            <Array as="points" />
          </mxGeometry>
        </mxCell>
        <mxCell id="ePUnUOnn1ZwYabv3tE3A-53" value="Customer Home Page" style="whiteSpace=wrap;html=1;fillColor=#A8DADC;strokeColor=#457B9D;fontColor=#1D3557;rounded=1;" vertex="1" parent="ePUnUOnn1ZwYabv3tE3A-7">
          <mxGeometry x="400" y="48" width="96" height="40" as="geometry" />
        </mxCell>
        <mxCell id="ePUnUOnn1ZwYabv3tE3A-54" value="" style="edgeStyle=none;orthogonalLoop=1;jettySize=auto;html=1;strokeWidth=2;fontSize=19;labelBackgroundColor=#F1FAEE;strokeColor=#457B9D;fontColor=#1D3557;rounded=1;" edge="1" parent="ePUnUOnn1ZwYabv3tE3A-7">
          <mxGeometry width="80" relative="1" as="geometry">
            <mxPoint x="448" y="88" as="sourcePoint" />
            <mxPoint x="448" y="112" as="targetPoint" />
            <Array as="points" />
          </mxGeometry>
        </mxCell>
        <mxCell id="ePUnUOnn1ZwYabv3tE3A-56" value="Admin Home Page" style="whiteSpace=wrap;html=1;fillColor=#A8DADC;strokeColor=#457B9D;fontColor=#1D3557;rounded=1;" vertex="1" parent="ePUnUOnn1ZwYabv3tE3A-7">
          <mxGeometry x="736" y="48" width="96" height="40" as="geometry" />
        </mxCell>
        <mxCell id="ePUnUOnn1ZwYabv3tE3A-58" value="" style="edgeStyle=none;orthogonalLoop=1;jettySize=auto;html=1;strokeWidth=2;fontSize=19;labelBackgroundColor=#F1FAEE;strokeColor=#457B9D;fontColor=#1D3557;rounded=1;" edge="1" parent="ePUnUOnn1ZwYabv3tE3A-7">
          <mxGeometry width="80" relative="1" as="geometry">
            <mxPoint x="784" y="88" as="sourcePoint" />
            <mxPoint x="784" y="112" as="targetPoint" />
            <Array as="points" />
          </mxGeometry>
        </mxCell>
        <mxCell id="ePUnUOnn1ZwYabv3tE3A-61" value="sidebar" style="whiteSpace=wrap;html=1;fillColor=#A8DADC;strokeColor=#457B9D;fontColor=#1D3557;rounded=1;" vertex="1" parent="ePUnUOnn1ZwYabv3tE3A-7">
          <mxGeometry x="32" y="136" width="80" height="32" as="geometry" />
        </mxCell>
        <mxCell id="ePUnUOnn1ZwYabv3tE3A-62" value="contact infromation" style="whiteSpace=wrap;html=1;fillColor=#A8DADC;strokeColor=#457B9D;fontColor=#1D3557;rounded=1;" vertex="1" parent="ePUnUOnn1ZwYabv3tE3A-7">
          <mxGeometry x="208" y="136" width="80" height="32" as="geometry" />
        </mxCell>
        <mxCell id="ePUnUOnn1ZwYabv3tE3A-63" value="" style="edgeStyle=none;orthogonalLoop=1;jettySize=auto;html=1;strokeWidth=2;fontSize=19;exitX=0.872;exitY=0.38;exitDx=0;exitDy=0;exitPerimeter=0;labelBackgroundColor=#F1FAEE;strokeColor=#457B9D;fontColor=#1D3557;rounded=1;" edge="1" parent="ePUnUOnn1ZwYabv3tE3A-7" source="ePUnUOnn1ZwYabv3tE3A-51">
          <mxGeometry width="80" relative="1" as="geometry">
            <mxPoint x="248" y="120" as="sourcePoint" />
            <mxPoint x="244" y="136" as="targetPoint" />
            <Array as="points" />
          </mxGeometry>
        </mxCell>
        <mxCell id="ePUnUOnn1ZwYabv3tE3A-65" value="" style="line;strokeWidth=4;html=1;shadow=0;glass=0;labelBackgroundColor=none;labelBorderColor=none;fontFamily=Times New Roman;fontSize=18;fillColor=#A8DADC;strokeColor=#457B9D;fontColor=#1D3557;rounded=1;" vertex="1" parent="ePUnUOnn1ZwYabv3tE3A-7">
          <mxGeometry x="24" y="200" width="208" height="10" as="geometry" />
        </mxCell>
        <mxCell id="ePUnUOnn1ZwYabv3tE3A-68" value="" style="edgeStyle=none;orthogonalLoop=1;jettySize=auto;html=1;strokeWidth=2;fontSize=19;labelBackgroundColor=#F1FAEE;strokeColor=#457B9D;fontColor=#1D3557;rounded=1;" edge="1" parent="ePUnUOnn1ZwYabv3tE3A-7">
          <mxGeometry width="80" relative="1" as="geometry">
            <mxPoint x="32" y="208" as="sourcePoint" />
            <mxPoint x="32" y="248" as="targetPoint" />
            <Array as="points" />
          </mxGeometry>
        </mxCell>
        <mxCell id="ePUnUOnn1ZwYabv3tE3A-69" value="update personal info" style="whiteSpace=wrap;html=1;fillColor=#A8DADC;strokeColor=#457B9D;fontColor=#1D3557;rounded=1;" vertex="1" parent="ePUnUOnn1ZwYabv3tE3A-7">
          <mxGeometry x="8" y="248" width="80" height="32" as="geometry" />
        </mxCell>
        <mxCell id="ePUnUOnn1ZwYabv3tE3A-72" value="products add" style="whiteSpace=wrap;html=1;fillColor=#A8DADC;strokeColor=#457B9D;fontColor=#1D3557;rounded=1;" vertex="1" parent="ePUnUOnn1ZwYabv3tE3A-7">
          <mxGeometry x="96" y="248" width="80" height="32" as="geometry" />
        </mxCell>
        <mxCell id="ePUnUOnn1ZwYabv3tE3A-100" value="" style="line;strokeWidth=4;html=1;shadow=0;glass=0;labelBackgroundColor=none;labelBorderColor=none;fontFamily=Times New Roman;fontSize=18;fillColor=#A8DADC;strokeColor=#457B9D;fontColor=#1D3557;rounded=1;" vertex="1" parent="ePUnUOnn1ZwYabv3tE3A-7">
          <mxGeometry x="360" y="104" width="216" height="10" as="geometry" />
        </mxCell>
        <mxCell id="ePUnUOnn1ZwYabv3tE3A-102" value="sidebar" style="whiteSpace=wrap;html=1;fillColor=#A8DADC;strokeColor=#457B9D;fontColor=#1D3557;rounded=1;" vertex="1" parent="ePUnUOnn1ZwYabv3tE3A-7">
          <mxGeometry x="336" y="136" width="80" height="32" as="geometry" />
        </mxCell>
        <mxCell id="ePUnUOnn1ZwYabv3tE3A-103" value="" style="edgeStyle=none;orthogonalLoop=1;jettySize=auto;html=1;strokeWidth=2;fontSize=19;labelBackgroundColor=#F1FAEE;strokeColor=#457B9D;fontColor=#1D3557;rounded=1;entryX=0.495;entryY=-0.031;entryDx=0;entryDy=0;entryPerimeter=0;" edge="1" parent="ePUnUOnn1ZwYabv3tE3A-7" target="ePUnUOnn1ZwYabv3tE3A-104">
          <mxGeometry width="80" relative="1" as="geometry">
            <mxPoint x="560" y="104" as="sourcePoint" />
            <mxPoint x="559.6479999999999" y="140.20000000000005" as="targetPoint" />
            <Array as="points" />
          </mxGeometry>
        </mxCell>
        <mxCell id="ePUnUOnn1ZwYabv3tE3A-104" value="contact infromation" style="whiteSpace=wrap;html=1;fillColor=#A8DADC;strokeColor=#457B9D;fontColor=#1D3557;rounded=1;" vertex="1" parent="ePUnUOnn1ZwYabv3tE3A-7">
          <mxGeometry x="520" y="136" width="80" height="32" as="geometry" />
        </mxCell>
        <mxCell id="ePUnUOnn1ZwYabv3tE3A-105" value="" style="edgeStyle=none;orthogonalLoop=1;jettySize=auto;html=1;strokeWidth=2;fontSize=19;exitX=0.465;exitY=0.994;exitDx=0;exitDy=0;exitPerimeter=0;entryX=0.287;entryY=0.46;entryDx=0;entryDy=0;entryPerimeter=0;labelBackgroundColor=#F1FAEE;strokeColor=#457B9D;fontColor=#1D3557;rounded=1;" edge="1" parent="ePUnUOnn1ZwYabv3tE3A-7">
          <mxGeometry width="80" relative="1" as="geometry">
            <mxPoint x="368" y="168" as="sourcePoint" />
            <mxPoint x="368.72" y="204.79199999999992" as="targetPoint" />
            <Array as="points" />
          </mxGeometry>
        </mxCell>
        <mxCell id="ePUnUOnn1ZwYabv3tE3A-106" value="" style="line;strokeWidth=4;html=1;shadow=0;glass=0;labelBackgroundColor=none;labelBorderColor=none;fontFamily=Times New Roman;fontSize=18;fillColor=#A8DADC;strokeColor=#457B9D;fontColor=#1D3557;rounded=1;" vertex="1" parent="ePUnUOnn1ZwYabv3tE3A-7">
          <mxGeometry x="320" y="200" width="208" height="10" as="geometry" />
        </mxCell>
        <mxCell id="ePUnUOnn1ZwYabv3tE3A-107" value="update personal info" style="whiteSpace=wrap;html=1;fillColor=#A8DADC;strokeColor=#457B9D;fontColor=#1D3557;rounded=1;" vertex="1" parent="ePUnUOnn1ZwYabv3tE3A-7">
          <mxGeometry x="312" y="240" width="80" height="32" as="geometry" />
        </mxCell>
        <mxCell id="ePUnUOnn1ZwYabv3tE3A-108" value="update personal info" style="whiteSpace=wrap;html=1;fillColor=#A8DADC;strokeColor=#457B9D;fontColor=#1D3557;rounded=1;" vertex="1" parent="ePUnUOnn1ZwYabv3tE3A-7">
          <mxGeometry x="400" y="240" width="80" height="32" as="geometry" />
        </mxCell>
        <mxCell id="ePUnUOnn1ZwYabv3tE3A-109" value="" style="edgeStyle=none;orthogonalLoop=1;jettySize=auto;html=1;strokeWidth=2;fontSize=19;labelBackgroundColor=#F1FAEE;strokeColor=#457B9D;fontColor=#1D3557;rounded=1;" edge="1" parent="ePUnUOnn1ZwYabv3tE3A-7">
          <mxGeometry width="80" relative="1" as="geometry">
            <mxPoint x="336" y="208" as="sourcePoint" />
            <mxPoint x="336" y="240" as="targetPoint" />
            <Array as="points" />
          </mxGeometry>
        </mxCell>
        <mxCell id="ePUnUOnn1ZwYabv3tE3A-111" value="" style="edgeStyle=none;orthogonalLoop=1;jettySize=auto;html=1;strokeWidth=2;fontSize=19;labelBackgroundColor=#F1FAEE;strokeColor=#457B9D;fontColor=#1D3557;rounded=1;" edge="1" parent="ePUnUOnn1ZwYabv3tE3A-7">
          <mxGeometry width="80" relative="1" as="geometry">
            <mxPoint x="424" y="208" as="sourcePoint" />
            <mxPoint x="424" y="240" as="targetPoint" />
            <Array as="points" />
          </mxGeometry>
        </mxCell>
        <mxCell id="ePUnUOnn1ZwYabv3tE3A-134" value="" style="edgeStyle=none;orthogonalLoop=1;jettySize=auto;html=1;strokeWidth=2;fontSize=19;exitX=0.465;exitY=0.994;exitDx=0;exitDy=0;exitPerimeter=0;entryX=0.287;entryY=0.46;entryDx=0;entryDy=0;entryPerimeter=0;labelBackgroundColor=#F1FAEE;strokeColor=#457B9D;fontColor=#1D3557;rounded=1;" edge="1" parent="ePUnUOnn1ZwYabv3tE3A-7">
          <mxGeometry width="80" relative="1" as="geometry">
            <mxPoint x="64" y="168" as="sourcePoint" />
            <mxPoint x="64.72000000000003" y="204.79199999999992" as="targetPoint" />
            <Array as="points" />
          </mxGeometry>
        </mxCell>
        <mxCell id="ePUnUOnn1ZwYabv3tE3A-135" value="customer view" style="whiteSpace=wrap;html=1;fillStyle=auto;strokeColor=#457B9D;fontColor=#1D3557;fillColor=#A8DADC;rounded=1;" vertex="1" parent="ePUnUOnn1ZwYabv3tE3A-7">
          <mxGeometry x="184" y="248" width="72" height="32" as="geometry" />
        </mxCell>
        <mxCell id="ePUnUOnn1ZwYabv3tE3A-136" value="" style="edgeStyle=none;orthogonalLoop=1;jettySize=auto;html=1;strokeWidth=2;fontSize=19;labelBackgroundColor=#F1FAEE;strokeColor=#457B9D;fontColor=#1D3557;entryX=0.333;entryY=0;entryDx=0;entryDy=0;entryPerimeter=0;rounded=1;" edge="1" parent="ePUnUOnn1ZwYabv3tE3A-7" target="ePUnUOnn1ZwYabv3tE3A-135">
          <mxGeometry width="80" relative="1" as="geometry">
            <mxPoint x="208" y="208" as="sourcePoint" />
            <mxPoint x="208" y="240" as="targetPoint" />
            <Array as="points" />
          </mxGeometry>
        </mxCell>
        <mxCell id="ePUnUOnn1ZwYabv3tE3A-137" value="" style="edgeStyle=none;orthogonalLoop=1;jettySize=auto;html=1;strokeWidth=2;fontSize=19;labelBackgroundColor=#F1FAEE;strokeColor=#457B9D;fontColor=#1D3557;exitX=0.537;exitY=0.7;exitDx=0;exitDy=0;exitPerimeter=0;rounded=1;" edge="1" parent="ePUnUOnn1ZwYabv3tE3A-7" source="ePUnUOnn1ZwYabv3tE3A-65">
          <mxGeometry width="80" relative="1" as="geometry">
            <mxPoint x="136" y="216" as="sourcePoint" />
            <mxPoint x="136" y="248" as="targetPoint" />
            <Array as="points" />
          </mxGeometry>
        </mxCell>
        <mxCell id="ePUnUOnn1ZwYabv3tE3A-139" value="update password" style="whiteSpace=wrap;html=1;fillStyle=auto;strokeColor=#457B9D;fontColor=#1D3557;fillColor=#A8DADC;rounded=1;" vertex="1" parent="ePUnUOnn1ZwYabv3tE3A-7">
          <mxGeometry x="216" y="296" width="72" height="32" as="geometry" />
        </mxCell>
        <mxCell id="ePUnUOnn1ZwYabv3tE3A-140" value="" style="edgeStyle=none;orthogonalLoop=1;jettySize=auto;html=1;strokeWidth=2;fontSize=19;labelBackgroundColor=#F1FAEE;strokeColor=#457B9D;fontColor=#1D3557;exitX=0.695;exitY=1.019;exitDx=0;exitDy=0;exitPerimeter=0;rounded=1;" edge="1" parent="ePUnUOnn1ZwYabv3tE3A-7" source="ePUnUOnn1ZwYabv3tE3A-62">
          <mxGeometry width="80" relative="1" as="geometry">
            <mxPoint x="264" y="216" as="sourcePoint" />
            <mxPoint x="264" y="296" as="targetPoint" />
            <Array as="points" />
          </mxGeometry>
        </mxCell>
        <mxCell id="ePUnUOnn1ZwYabv3tE3A-143" value="" style="line;strokeWidth=4;html=1;shadow=0;glass=0;labelBackgroundColor=none;labelBorderColor=none;fontFamily=Times New Roman;fontSize=18;fillColor=#A8DADC;strokeColor=#457B9D;fontColor=#1D3557;rounded=1;" vertex="1" parent="ePUnUOnn1ZwYabv3tE3A-7">
          <mxGeometry x="672" y="104" width="272" height="10" as="geometry" />
        </mxCell>
        <mxCell id="ePUnUOnn1ZwYabv3tE3A-144" value="" style="edgeStyle=none;orthogonalLoop=1;jettySize=auto;html=1;strokeWidth=2;fontSize=19;exitX=0.076;exitY=0.78;exitDx=0;exitDy=0;exitPerimeter=0;labelBackgroundColor=#F1FAEE;strokeColor=#457B9D;fontColor=#1D3557;rounded=1;" edge="1" parent="ePUnUOnn1ZwYabv3tE3A-7">
          <mxGeometry width="80" relative="1" as="geometry">
            <mxPoint x="696.42" y="112" as="sourcePoint" />
            <mxPoint x="696.004" y="136.20000000000005" as="targetPoint" />
            <Array as="points" />
          </mxGeometry>
        </mxCell>
        <mxCell id="ePUnUOnn1ZwYabv3tE3A-145" value="" style="edgeStyle=none;orthogonalLoop=1;jettySize=auto;html=1;strokeWidth=2;fontSize=19;exitX=0.943;exitY=0.22;exitDx=0;exitDy=0;exitPerimeter=0;labelBackgroundColor=#F1FAEE;strokeColor=#457B9D;fontColor=#1D3557;rounded=1;entryX=0.505;entryY=-0.006;entryDx=0;entryDy=0;entryPerimeter=0;" edge="1" parent="ePUnUOnn1ZwYabv3tE3A-7" source="ePUnUOnn1ZwYabv3tE3A-143" target="ePUnUOnn1ZwYabv3tE3A-147">
          <mxGeometry width="80" relative="1" as="geometry">
            <mxPoint x="928.35" y="112" as="sourcePoint" />
            <mxPoint x="927.9979999999999" y="140.20000000000005" as="targetPoint" />
            <Array as="points" />
          </mxGeometry>
        </mxCell>
        <mxCell id="ePUnUOnn1ZwYabv3tE3A-146" value="sidebar" style="whiteSpace=wrap;html=1;fillColor=#A8DADC;strokeColor=#457B9D;fontColor=#1D3557;rounded=1;" vertex="1" parent="ePUnUOnn1ZwYabv3tE3A-7">
          <mxGeometry x="664" y="136" width="80" height="32" as="geometry" />
        </mxCell>
        <mxCell id="ePUnUOnn1ZwYabv3tE3A-147" value="contact infromation" style="whiteSpace=wrap;html=1;fillColor=#A8DADC;strokeColor=#457B9D;fontColor=#1D3557;rounded=1;" vertex="1" parent="ePUnUOnn1ZwYabv3tE3A-7">
          <mxGeometry x="888" y="136" width="80" height="32" as="geometry" />
        </mxCell>
        <mxCell id="ePUnUOnn1ZwYabv3tE3A-149" value="update personal info" style="whiteSpace=wrap;html=1;fillColor=#A8DADC;strokeColor=#457B9D;fontColor=#1D3557;rounded=1;" vertex="1" parent="ePUnUOnn1ZwYabv3tE3A-7">
          <mxGeometry x="672" y="472" width="80" height="32" as="geometry" />
        </mxCell>
        <mxCell id="ePUnUOnn1ZwYabv3tE3A-150" value="" style="line;strokeWidth=4;html=1;shadow=0;glass=0;labelBackgroundColor=none;labelBorderColor=none;fontFamily=Times New Roman;fontSize=18;fillColor=#A8DADC;strokeColor=#457B9D;fontColor=#1D3557;rounded=1;" vertex="1" parent="ePUnUOnn1ZwYabv3tE3A-7">
          <mxGeometry x="664" y="200" width="208" height="10" as="geometry" />
        </mxCell>
        <mxCell id="ePUnUOnn1ZwYabv3tE3A-196" value="" style="edgeStyle=none;orthogonalLoop=1;jettySize=auto;html=1;strokeWidth=2;fontSize=19;labelBackgroundColor=#F1FAEE;strokeColor=#457B9D;fontColor=#1D3557;rounded=1;" edge="1" parent="ePUnUOnn1ZwYabv3tE3A-7">
          <mxGeometry width="80" relative="1" as="geometry">
            <mxPoint x="680" y="208" as="sourcePoint" />
            <mxPoint x="680" y="240" as="targetPoint" />
            <Array as="points" />
          </mxGeometry>
        </mxCell>
        <mxCell id="ePUnUOnn1ZwYabv3tE3A-197" value="update personal info" style="whiteSpace=wrap;html=1;fillColor=#A8DADC;strokeColor=#457B9D;fontColor=#1D3557;rounded=1;" vertex="1" parent="ePUnUOnn1ZwYabv3tE3A-7">
          <mxGeometry x="656" y="240" width="80" height="32" as="geometry" />
        </mxCell>
        <mxCell id="ePUnUOnn1ZwYabv3tE3A-198" value="" style="edgeStyle=none;orthogonalLoop=1;jettySize=auto;html=1;strokeWidth=2;fontSize=19;labelBackgroundColor=#F1FAEE;strokeColor=#457B9D;fontColor=#1D3557;rounded=1;exitX=0.54;exitY=0.7;exitDx=0;exitDy=0;exitPerimeter=0;" edge="1" parent="ePUnUOnn1ZwYabv3tE3A-7" source="ePUnUOnn1ZwYabv3tE3A-150">
          <mxGeometry width="80" relative="1" as="geometry">
            <mxPoint x="752" y="208" as="sourcePoint" />
            <mxPoint x="776" y="240" as="targetPoint" />
            <Array as="points">
              <mxPoint x="776" y="224" />
            </Array>
          </mxGeometry>
        </mxCell>
        <mxCell id="ePUnUOnn1ZwYabv3tE3A-246" value="update personal info" style="whiteSpace=wrap;html=1;fillColor=#A8DADC;strokeColor=#457B9D;fontColor=#1D3557;rounded=1;" vertex="1" parent="ePUnUOnn1ZwYabv3tE3A-7">
          <mxGeometry x="744" y="240" width="80" height="32" as="geometry" />
        </mxCell>
        <mxCell id="ePUnUOnn1ZwYabv3tE3A-133" value="accpeted" style="text;html=1;align=center;verticalAlign=middle;resizable=0;points=[];autosize=1;strokeColor=none;fillColor=none;rounded=1;" vertex="1" parent="ePUnUOnn1ZwYabv3tE3A-7">
          <mxGeometry x="832" y="400" width="72" height="32" as="geometry" />
        </mxCell>
        <mxCell id="ePUnUOnn1ZwYabv3tE3A-21" value="" style="endArrow=none;html=1;strokeWidth=2;fontSize=19;labelBackgroundColor=#F1FAEE;strokeColor=#457B9D;fontColor=#1D3557;rounded=1;" edge="1" parent="1">
          <mxGeometry width="50" height="50" relative="1" as="geometry">
            <mxPoint x="320" y="-800" as="sourcePoint" />
            <mxPoint x="320" y="-192" as="targetPoint" />
            <Array as="points">
              <mxPoint x="321" y="-448" />
              <mxPoint x="321" y="-344" />
              <mxPoint x="320" y="-192" />
            </Array>
          </mxGeometry>
        </mxCell>
        <mxCell id="ePUnUOnn1ZwYabv3tE3A-42" value="" style="edgeStyle=none;orthogonalLoop=1;jettySize=auto;html=1;strokeWidth=2;fontSize=19;labelBackgroundColor=#F1FAEE;strokeColor=#457B9D;fontColor=#1D3557;rounded=1;" edge="1" parent="1">
          <mxGeometry width="80" relative="1" as="geometry">
            <mxPoint x="456" y="-864" as="sourcePoint" />
            <mxPoint x="456" y="-784" as="targetPoint" />
            <Array as="points" />
          </mxGeometry>
        </mxCell>
        <mxCell id="ePUnUOnn1ZwYabv3tE3A-43" value="" style="edgeStyle=none;orthogonalLoop=1;jettySize=auto;html=1;strokeWidth=2;fontSize=19;labelBackgroundColor=#F1FAEE;strokeColor=#457B9D;fontColor=#1D3557;rounded=1;" edge="1" parent="1">
          <mxGeometry width="80" relative="1" as="geometry">
            <mxPoint x="192" y="-864" as="sourcePoint" />
            <mxPoint x="192" y="-784" as="targetPoint" />
            <Array as="points" />
          </mxGeometry>
        </mxCell>
        <mxCell id="ePUnUOnn1ZwYabv3tE3A-64" value="" style="edgeStyle=none;orthogonalLoop=1;jettySize=auto;html=1;strokeWidth=2;fontSize=19;exitX=0.076;exitY=0.78;exitDx=0;exitDy=0;exitPerimeter=0;labelBackgroundColor=#F1FAEE;strokeColor=#457B9D;fontColor=#1D3557;rounded=1;" edge="1" parent="1" source="ePUnUOnn1ZwYabv3tE3A-51">
          <mxGeometry width="80" relative="1" as="geometry">
            <mxPoint x="88" y="-712" as="sourcePoint" />
            <mxPoint x="88" y="-696" as="targetPoint" />
            <Array as="points" />
          </mxGeometry>
        </mxCell>
        <mxCell id="ePUnUOnn1ZwYabv3tE3A-101" value="" style="edgeStyle=none;orthogonalLoop=1;jettySize=auto;html=1;strokeWidth=2;fontSize=19;exitX=0.076;exitY=0.78;exitDx=0;exitDy=0;exitPerimeter=0;labelBackgroundColor=#F1FAEE;strokeColor=#457B9D;fontColor=#1D3557;rounded=1;" edge="1" parent="1">
          <mxGeometry width="80" relative="1" as="geometry">
            <mxPoint x="384" y="-720" as="sourcePoint" />
            <mxPoint x="383.58400000000006" y="-695.8" as="targetPoint" />
            <Array as="points" />
          </mxGeometry>
        </mxCell>
        <mxCell id="ePUnUOnn1ZwYabv3tE3A-114" style="edgeStyle=orthogonalEdgeStyle;orthogonalLoop=1;jettySize=auto;html=1;entryX=0;entryY=0.5;entryDx=0;entryDy=0;entryPerimeter=0;labelBackgroundColor=#F1FAEE;strokeColor=#457B9D;fontColor=#1D3557;rounded=1;strokeWidth=2;" edge="1" parent="1" target="ePUnUOnn1ZwYabv3tE3A-115">
          <mxGeometry relative="1" as="geometry">
            <mxPoint x="472" y="-1024" as="targetPoint" />
            <Array as="points">
              <mxPoint x="376" y="-949" />
              <mxPoint x="408" y="-949" />
              <mxPoint x="408" y="-1024" />
            </Array>
            <mxPoint x="376" y="-952" as="sourcePoint" />
          </mxGeometry>
        </mxCell>
        <mxCell id="ePUnUOnn1ZwYabv3tE3A-115" value="authentication" style="whiteSpace=wrap;html=1;fillColor=#A8DADC;strokeColor=#457B9D;fontColor=#1D3557;rounded=1;" vertex="1" parent="1">
          <mxGeometry x="488" y="-1040" width="80" height="32" as="geometry" />
        </mxCell>
        <mxCell id="ePUnUOnn1ZwYabv3tE3A-116" style="edgeStyle=orthogonalEdgeStyle;orthogonalLoop=1;jettySize=auto;html=1;exitX=0.25;exitY=0.5;exitDx=0;exitDy=0;exitPerimeter=0;entryX=1.015;entryY=0.519;entryDx=0;entryDy=0;entryPerimeter=0;labelBackgroundColor=#F1FAEE;strokeColor=#457B9D;fontColor=#1D3557;rounded=1;strokeWidth=2;" edge="1" parent="1" source="dkGYVJOHW7Im5ONdV2D0-32" target="ePUnUOnn1ZwYabv3tE3A-115">
          <mxGeometry relative="1" as="geometry">
            <mxPoint x="536" y="-976" as="targetPoint" />
            <Array as="points">
              <mxPoint x="664" y="-928" />
              <mxPoint x="664" y="-1023" />
            </Array>
            <mxPoint x="580" y="-880" as="sourcePoint" />
          </mxGeometry>
        </mxCell>
        <mxCell id="ePUnUOnn1ZwYabv3tE3A-117" value="" style="rhombus;whiteSpace=wrap;html=1;fillColor=#A8DADC;strokeColor=#457B9D;fontColor=#1D3557;rounded=1;" vertex="1" parent="1">
          <mxGeometry x="512" y="-984" width="16" height="16" as="geometry" />
        </mxCell>
        <mxCell id="ePUnUOnn1ZwYabv3tE3A-118" value="" style="endArrow=classic;html=1;exitX=0.415;exitY=1.019;exitDx=0;exitDy=0;exitPerimeter=0;labelBackgroundColor=#F1FAEE;strokeColor=#457B9D;fontColor=#1D3557;rounded=1;" edge="1" parent="1" source="ePUnUOnn1ZwYabv3tE3A-115">
          <mxGeometry width="50" height="50" relative="1" as="geometry">
            <mxPoint x="504" y="-1008" as="sourcePoint" />
            <mxPoint x="520" y="-982" as="targetPoint" />
            <Array as="points" />
          </mxGeometry>
        </mxCell>
        <mxCell id="ePUnUOnn1ZwYabv3tE3A-119" value="" style="endArrow=classic;html=1;strokeWidth=2;fontFamily=Times New Roman;fontSize=18;labelBackgroundColor=#F1FAEE;strokeColor=#457B9D;fontColor=#1D3557;rounded=1;" edge="1" parent="1">
          <mxGeometry width="50" height="50" relative="1" as="geometry">
            <mxPoint x="520" y="-968" as="sourcePoint" />
            <mxPoint x="520" y="-864" as="targetPoint" />
          </mxGeometry>
        </mxCell>
        <mxCell id="ePUnUOnn1ZwYabv3tE3A-120" value="valid" style="text;html=1;align=center;verticalAlign=middle;resizable=0;points=[];autosize=1;strokeColor=none;fillColor=none;fontColor=#1D3557;rounded=1;" vertex="1" parent="1">
          <mxGeometry x="520" y="-952" width="48" height="32" as="geometry" />
        </mxCell>
        <mxCell id="ePUnUOnn1ZwYabv3tE3A-121" value="invalid" style="text;html=1;align=center;verticalAlign=middle;resizable=0;points=[];autosize=1;strokeColor=none;fillColor=none;fontColor=#1D3557;rounded=1;" vertex="1" parent="1">
          <mxGeometry x="432" y="-1000" width="56" height="32" as="geometry" />
        </mxCell>
        <mxCell id="ePUnUOnn1ZwYabv3tE3A-122" value="" style="edgeStyle=segmentEdgeStyle;endArrow=classic;html=1;entryX=0.436;entryY=0.044;entryDx=0;entryDy=0;entryPerimeter=0;labelBackgroundColor=#F1FAEE;strokeColor=#457B9D;fontColor=#1D3557;rounded=1;strokeWidth=2;" edge="1" parent="1" target="dkGYVJOHW7Im5ONdV2D0-17">
          <mxGeometry width="50" height="50" relative="1" as="geometry">
            <mxPoint x="408" y="-1056" as="sourcePoint" />
            <mxPoint x="64" y="-1072" as="targetPoint" />
            <Array as="points">
              <mxPoint x="112" y="-1056" />
            </Array>
          </mxGeometry>
        </mxCell>
        <mxCell id="ePUnUOnn1ZwYabv3tE3A-123" value="" style="edgeStyle=segmentEdgeStyle;endArrow=classic;html=1;exitX=-0.175;exitY=0.638;exitDx=0;exitDy=0;exitPerimeter=0;labelBackgroundColor=#F1FAEE;strokeColor=#457B9D;fontColor=#1D3557;rounded=1;strokeWidth=2;" edge="1" parent="1" source="ePUnUOnn1ZwYabv3tE3A-117">
          <mxGeometry width="50" height="50" relative="1" as="geometry">
            <mxPoint x="496" y="-976" as="sourcePoint" />
            <mxPoint x="392" y="-1056" as="targetPoint" />
            <Array as="points">
              <mxPoint x="392" y="-974" />
            </Array>
          </mxGeometry>
        </mxCell>
        <mxCell id="ePUnUOnn1ZwYabv3tE3A-151" value="" style="edgeStyle=none;orthogonalLoop=1;jettySize=auto;html=1;strokeWidth=2;fontSize=19;exitX=0.465;exitY=0.994;exitDx=0;exitDy=0;exitPerimeter=0;entryX=0.287;entryY=0.46;entryDx=0;entryDy=0;entryPerimeter=0;labelBackgroundColor=#F1FAEE;strokeColor=#457B9D;fontColor=#1D3557;rounded=1;" edge="1" parent="1">
          <mxGeometry width="80" relative="1" as="geometry">
            <mxPoint x="704" y="-664" as="sourcePoint" />
            <mxPoint x="704.72" y="-627.2080000000001" as="targetPoint" />
            <Array as="points" />
          </mxGeometry>
        </mxCell>
      </root>
    </mxGraphModel>
  </diagram>
</mxfile>
